<svg t="1650885141129" class="icon" viewBox="0 0 1024 1024" version="1.1" xmlns="http://www.w3.org/2000/svg" p-id="2917" width="200" height="200"><path d="M882.137073 740.403425a141.227907 141.227907 0 0 0-72.194392 19.723862l-118.975345-118.975346a221.76701 221.76701 0 0 0-4.172355-265.513523l116.383427-116.383428a141.354342 141.354342 0 1 0-48.740697-56.01071l-122.009785 122.009786a221.261269 221.261269 0 0 0-245.726444 1.454003l-119.417868-118.848911a141.733647 141.733647 0 1 0-50.574005 54.367055l116.256993 115.751253a221.703792 221.703792 0 0 0-4.109138 261.02508l-118.84891 118.848911a141.607212 141.607212 0 1 0 53.355574 51.395832l117.584561-117.647778a221.640575 221.640575 0 0 0 257.295247 1.51722l120.113261 120.113261a141.796865 141.796865 0 1 0 123.906311-72.826567z m0-666.312508a67.705948 67.705948 0 1 1-67.705949 67.64273 67.705948 67.705948 0 0 1 67.705949-67.64273zM141.733647 209.439596a67.705948 67.705948 0 1 1 67.642731-67.705949 67.705948 67.705948 0 0 1-67.642731 67.705949z m0 740.403425a67.705948 67.705948 0 1 1 67.642731-67.705948 67.769166 67.769166 0 0 1-67.642731 67.705948z m220.75553-438.539836a148.181833 148.181833 0 1 1 148.181833 148.181833 148.371486 148.371486 0 0 1-148.181833-148.181833z m519.647896 438.539836a67.705948 67.705948 0 1 1 67.642731-67.705948 67.769166 67.769166 0 0 1-67.642731 67.705948z" fill="#dbdbdb" p-id="2918"></path></svg>