<?xml version="1.0" standalone="no"?><!DOCTYPE svg PUBLIC "-//W3C//DTD SVG 1.1//EN" "http://www.w3.org/Graphics/SVG/1.1/DTD/svg11.dtd"><svg t="1621347361893" class="icon" viewBox="0 0 1024 1024" version="1.1" xmlns="http://www.w3.org/2000/svg" p-id="3554" xmlns:xlink="http://www.w3.org/1999/xlink" width="200" height="200"><defs><style type="text/css"></style></defs><path d="M169.1 434l296.6 188.6c14.7 9.4 31.6 14.3 49 14.3s34.4-4.9 49-14.2L860.3 434c18.8-11.9 30-32.4 30-54.6s-11.2-42.7-30-54.6L563.7 136.1c-29.3-18.7-68.7-18.6-98 0L169.1 324.8c-18.8 11.9-30 32.3-30 54.6 0 22.2 11.2 42.7 30 54.6z" p-id="3555" fill="#dbdbdb"></path><path d="M858.3 521.2L544.5 724.1c-20.7 13.4-46.6 13.4-67.3 0.1l-311-202.9c-8-5.3-18.7-3-24 5-5.3 8-3 18.8 5 24l311.1 203c16.2 10.4 34.4 15.6 52.5 15.6s36.3-5.2 52.5-15.6l313.8-203.1c8-5.1 10.3-15.9 5.1-23.9-5.1-8-15.9-10.3-23.9-5.1z" p-id="3556" fill="#dbdbdb"></path><path d="M858.3 648.6L544.5 851.5c-20.8 13.4-46.7 13.4-67.4 0.1l-311-202.9c-8-5.3-18.7-3-24 5-5.2 8-2.9 18.8 5.1 24l311.1 203c16.2 10.4 34.4 15.6 52.5 15.6s36.3-5.2 52.5-15.7l313.8-203c8-5.1 10.3-15.9 5.1-23.9-5.1-8-15.9-10.3-23.9-5.1z" p-id="3557" fill="#dbdbdb"></path></svg>